/* XPM */
static char * Icon2_xpm[] = {
"75 85 2 1",
" 	c None",
".	c #001E38",
"                                                                           ",
"                                                                           ",
"                                                                           ",
"                                                                           ",
"                                                                           ",
"                                                                           ",
"                                                                           ",
"                                                                           ",
"                                                                           ",
"                                                                           ",
"                                                                           ",
"                                      ....                                 ",
"                         ...         .......                               ",
"                       .....         ..........                            ",
"                     .......         ...........                           ",
"                   ........         ..............                         ",
"                  .........         ...............                        ",
"                ...........        .................                       ",
"               ...........         ..................                      ",
"              ............         ....................                    ",
"             .............        .....................                    ",
"            .............         ......................                   ",
"           ..............        ........................                  ",
"           ..............        ........................                  ",
"          ..............         .........................                 ",
"          ..............                 ..................                ",
"         ..............                 ...................                ",
"         ..............                .....................               ",
"        ...............                .....................               ",
"        ..............                ......................               ",
"       ...............               ........................              ",
"       ...............               ........................              ",
"       ..............               .........................              ",
"       ..............              ..........................              ",
"      .......................     ............................             ",
"      .......................     ............................             ",
"      .......................    .............................             ",
"      ......................    ...............................            ",
"      ......................   ................................            ",
"      ......................   ................................            ",
"      .....................   ..................................           ",
"      .....................  ...................................           ",
"      ..................... .....................................          ",
"       ...................  .....................................          ",
"       ................... ......................................          ",
"       ...........................................................         ",
"       ...........................................................         ",
"        ...........................................................        ",
"        ...........................................................        ",
"        ...........................................................        ",
"         ...........................................................       ",
"         ...........................................................       ",
"          ..........................................................       ",
"           .........................................................       ",
"           .........................................................       ",
"            ..................................................             ",
"            ..................................................             ",
"             .................................................             ",
"              ...............................................              ",
"               ..............................................              ",
"                .............................................              ",
"                  ...........................................              ",
"                  ...........................................              ",
"                  ...........................................              ",
"                  ...........................................              ",
"                  ..........................................               ",
"                  ..........................................               ",
"                  ..........................................               ",
"                  .........................................                ",
"                  .............................                            ",
"                  .............................                            ",
"                  .............................                            ",
"                  .............................                            ",
"                  .............................                            ",
"                  .............................                            ",
"                                                                           ",
"                                                                           ",
"                                                                           ",
"                                                                           ",
"                                                                           ",
"                                                                           ",
"                                                                           ",
"                                                                           ",
"                                                                           ",
"                                                                           "};
