/* XPM */
static char * Icon_new_xpm[] = {
"82 94 3 1",
" 	c None",
".	c #F0C027",
"+	c #595FB3",
"                                                                                  ",
"                                                                                  ",
"                                                                                  ",
"                                                                                  ",
"                                                                                  ",
"                                                                                  ",
"                                                                                  ",
"                                                                                  ",
"                                                                                  ",
"                                                                                  ",
"                                                                                  ",
"                                                                                  ",
"                                              ..                                  ",
"                                             ..                                   ",
"                                            ...                                   ",
"                                           ....                                   ",
"                                          .....                                   ",
"                                          ....                                    ",
"                                         .....                                    ",
"                                        ......                                    ",
"                                       .......                                    ",
"                                      .............                               ",
"                                     .............                                ",
"                                    .............                                 ",
"                                    ............                                  ",
"                                   .............                                  ",
"            ..                          .......                       ..          ",
"            ...                         ......                      ...           ",
"             ....                      ......                     .....           ",
"             ......                    .....                     .....            ",
"              ......                   .....                   ......             ",
"              ........                 ....                  ........             ",
"               ........                ...                  ........              ",
"                .........              ..                 ..........              ",
"              .............            .                 ............             ",
"           ................                             ................          ",
"            ..............              ++               ...............          ",
"             ..........             +++++++++++             ..........            ",
"               .........          ++++++++++++++           ..........             ",
"                ........         +++++++++++++++++         ........               ",
"                  .......       +++++++++++++++++++       ........                ",
"                   ......       ++++++++++++++++++++      ......                  ",
"                     .....     +++++++++++++++++++++     ......                   ",
"                      ....     +++++++++++++++++++++     ....                     ",
"                        ...    +++++++++++++++++++++    ...                       ",
"                         ..    +++++++++++++++++++++    ..                        ",
"                               +++++++++++++++++++++                              ",
"                               +++++++++++++++++++++                              ",
"                               +++++++++++++++++++++                              ",
"                               ++++++++++++++++++++++                             ",
"                              +++++++++++++++++++++++                             ",
"                              +++++++++++++++++++++++                             ",
"                               ++++++++++++++++++++++                             ",
"                               +++++++++++++++++++++                              ",
"                               +++++++++++++++++++++                              ",
"                                ++++++++++++++++++++                              ",
"                                ++++++++++++++++++++                              ",
"                                +++++++++++++++++++                               ",
"                                +++++++++++++++++++                               ",
"                                 ++++++++++++++++++                               ",
"                                 +++++++++++++++++                                ",
"                                  +++++++++++++++                                 ",
"                                   ++++++++++++++                                 ",
"                                    ++++++++++++                                  ",
"                                   + +++++++++ ++                                 ",
"                                 ++++  +++++  ++++                                ",
"                                ++++++       +++++++                              ",
"                             ++++++++++++ ++++++++++++                            ",
"                           +++++++++++++++++++++++++++++                          ",
"                         ++++++++++++++++++++++++++++++++++                       ",
"                       +++++++++++++++++++++++++++++++++++++                      ",
"                      ++++++++++++++++++++++++++++++++++++++++                    ",
"                     ++++++++++++++++++++++++++++++++++++++++++                   ",
"                    +++++++++++++++++++++++++++++++++++++++++++                   ",
"                    ++++++++++++++++++++++++++++++++++++++++++++                  ",
"                   +++++++++++++++++++++++++++++++++++++++++++++                  ",
"                   +++++++++++++++++++++++++++++++++++++++++++++                  ",
"                   +++++++++++++++++++++++++++++++++++++++++++++                  ",
"                   +++++++++++++++++++++++++++++++++++++++++++++                  ",
"                                                                                  ",
"                                                                                  ",
"                                                                                  ",
"                                                                                  ",
"                                                                                  ",
"                                                                                  ",
"                                                                                  ",
"                                                                                  ",
"                                                                                  ",
"                                                                                  ",
"                                                                                  ",
"                                                                                  ",
"                                                                                  ",
"                                                                                  ",
"                                                                                  "};
