/* XPM */
static char * Icon1_xpm[] = {
"72 77 2 1",
" 	c None",
".	c #001E38",
"                                                                        ",
"                                                                        ",
"                                                                        ",
"                                                                        ",
"                                                                        ",
"                                                                        ",
"                                ..                                      ",
"                         ................                               ",
"                       .....................                            ",
"                    ..........................                          ",
"                   .............................                        ",
"                 .................................                      ",
"                ...................................                     ",
"               .....................................                    ",
"              .......................................                   ",
"             .........................................                  ",
"            ...........................................                 ",
"           ..................    .......................                ",
"          ................          ....................                ",
"          ...............            ....................               ",
"         ..............               ....................              ",
"         .............               .....................              ",
"        ..............            .........................             ",
"        .............            ..........................             ",
"       .............            ............................            ",
"       .............            ......     .................            ",
"       .............            ....         ...............            ",
"      ..............                          ..............            ",
"      .................                        ..............           ",
"      ..................                       ..............           ",
"      ...................                    ................           ",
"      ............ ......                   .................           ",
"      ..........     ....                   ..................          ",
"      .........                              ...     .........          ",
"      ........                                        .........         ",
"      ........                                        .........         ",
"      ........                                        .........         ",
"      ........                                        ..........        ",
"      .........                                       ..........        ",
"      ..........                                     ............       ",
"       ..........                                   .............       ",
"       .............                             ................       ",
"       ...........................................................      ",
"       ...........................................................      ",
"        ..........................................................      ",
"        ...........................................................     ",
"         ..................  ...... ......  .......................     ",
"         .................  ...... ......  ........................     ",
"          ...............  ...... ......  ..........................    ",
"          ..............  ...... ......  ...........................    ",
"           .........................................................    ",
"            .................................................           ",
"            .................................................           ",
"             ................................................           ",
"              ...............................................           ",
"               ..............................................           ",
"                .............................................           ",
"                  ...........................................           ",
"                  ...........................................           ",
"                  ..........................................            ",
"                  ..........................................            ",
"                  ..........................................            ",
"                  ..........................................            ",
"                  .........................................             ",
"                  .........................................             ",
"                  .............................                         ",
"                  .............................                         ",
"                  .............................                         ",
"                  .............................                         ",
"                  .............................                         ",
"                  .............................                         ",
"                                                                        ",
"                                                                        ",
"                                                                        ",
"                                                                        ",
"                                                                        ",
"                                                                        "};
