/* XPM */
static char * Icon_xpm[] = {
"82 94 2 1",
" 	c None",
".	c #001E38",
"                                                                                  ",
"                                                                                  ",
"                                                                                  ",
"                                                                                  ",
"                                                                                  ",
"                                                                                  ",
"                                                                                  ",
"                                                                                  ",
"                                                                                  ",
"                                                                                  ",
"                                                                                  ",
"                                                                                  ",
"                                              ..                                  ",
"                                             ..                                   ",
"                                            ...                                   ",
"                                           ....                                   ",
"                                          .....                                   ",
"                                          ....                                    ",
"                                         .....                                    ",
"                                        ......                                    ",
"                                       .......                                    ",
"                                      .............                               ",
"                                     .............                                ",
"                                    .............                                 ",
"                                    ............                                  ",
"                                   .............                                  ",
"            ..                          .......                       ..          ",
"            ...                         ......                      ...           ",
"             ....                      ......                     .....           ",
"             ......                    .....                     .....            ",
"              ......                   .....                   ......             ",
"              ........                 ....                  ........             ",
"               ........                ...                  ........              ",
"                .........              ..                 ..........              ",
"              .............            .                 ............             ",
"           ................                             ................          ",
"            ..............              ..               ...............          ",
"             ..........             ...........             ..........            ",
"               .........          ..............           ..........             ",
"                ........         .................         ........               ",
"                  .......       ...................       ........                ",
"                   ......       ....................      ......                  ",
"                     .....     .....................     ......                   ",
"                      ....     .....................     ....                     ",
"                        ...    .....................    ...                       ",
"                         ..    .....................    ..                        ",
"                               .....................                              ",
"                               .....................                              ",
"                               .....................                              ",
"                               ......................                             ",
"                              .......................                             ",
"                              .......................                             ",
"                               ......................                             ",
"                               .....................                              ",
"                               .....................                              ",
"                                ....................                              ",
"                                ....................                              ",
"                                ...................                               ",
"                                ...................                               ",
"                                 ..................                               ",
"                                 .................                                ",
"                                  ...............                                 ",
"                                   ..............                                 ",
"                                    ............                                  ",
"                                   . ......... ..                                 ",
"                                 ....  .....  ....                                ",
"                                ......       .......                              ",
"                             ............ ............                            ",
"                           .............................                          ",
"                         ..................................                       ",
"                       .....................................                      ",
"                      ........................................                    ",
"                     ..........................................                   ",
"                    ...........................................                   ",
"                    ............................................                  ",
"                   .............................................                  ",
"                   .............................................                  ",
"                   .............................................                  ",
"                   .............................................                  ",
"                                                                                  ",
"                                                                                  ",
"                                                                                  ",
"                                                                                  ",
"                                                                                  ",
"                                                                                  ",
"                                                                                  ",
"                                                                                  ",
"                                                                                  ",
"                                                                                  ",
"                                                                                  ",
"                                                                                  ",
"                                                                                  ",
"                                                                                  ",
"                                                                                  "};
